<?xml version="1.0" encoding="UTF-8"?>
<svg id="Pantallas" xmlns="http://www.w3.org/2000/svg" viewBox="0 0 75 75">
  <polygon points="54.47 .13 54.47 6.94 51.36 6.94 51.36 20.55 44.55 20.55 44.55 6.94 31.86 6.94 31.86 20.55 25.05 20.55 25.05 6.94 20.42 6.94 20.42 .13 54.47 .13"/>
  <rect x="23.64" y="54.45" width="1.32" height=".07"/>
  <polygon points="75 20.47 75 54.51 68.19 54.51 68.19 40.9 58.17 40.9 58.17 54.51 51.36 54.51 51.36 40.9 24.96 40.9 24.96 54.45 23.64 54.45 23.64 54.51 18.15 54.51 18.15 40.9 6.81 40.9 6.81 54.51 0 54.51 0 20.47 6.81 20.47 6.81 34.09 18.15 34.09 18.15 20.47 24.96 20.47 24.96 34.09 51.36 34.09 51.36 20.47 58.17 20.47 58.17 34.09 68.19 34.09 68.19 20.47 75 20.47"/>
  <rect x="6.81" y="13.75" width="6.81" height="6.81"/>
  <rect x="61.38" y="13.75" width="6.81" height="6.81"/>
  <rect x="13.62" y="6.93" width="6.81" height="6.81" transform="translate(6.69 27.36) rotate(-90)"/>
  <rect x="54.58" y="6.93" width="6.81" height="6.81" transform="translate(47.64 68.32) rotate(-90)"/>
  <polygon points="54.58 68.06 54.58 74.87 20.53 74.87 20.53 68.06 23.64 68.06 23.64 54.51 24.96 54.51 24.96 54.45 30.45 54.45 30.45 68.06 43.15 68.06 43.15 54.45 49.96 54.45 49.96 68.06 54.58 68.06"/>
  <rect x="23.64" y="54.45" width="1.32" height=".07"/>
  <rect x="61.38" y="54.45" width="6.81" height="6.81"/>
  <rect x="6.81" y="54.45" width="6.81" height="6.81"/>
  <rect x="54.58" y="61.26" width="6.81" height="6.81" transform="translate(122.64 6.68) rotate(90)"/>
  <rect x="13.62" y="61.26" width="6.81" height="6.81" transform="translate(81.69 47.64) rotate(90)"/>
</svg>