<?xml version="1.0" encoding="UTF-8"?>
<svg id="Pantallas" xmlns="http://www.w3.org/2000/svg" viewBox="0 0 62.5 56.82">
  <defs>
    <style>
      .cls-1 {
        fill: #92d178;
      }
    </style>
  </defs>
  <polygon class="cls-1" points="14.73 20.66 14.73 15.5 14.73 10.33 14.73 5.17 14.73 0 9.57 0 9.57 5.17 9.57 10.33 9.57 15.5 9.57 20.66 9.57 25.83 14.73 25.83 14.73 20.66"/>
  <rect class="cls-1" x="4.4" y="25.83" width="5.17" height="5.17"/>
  <polygon class="cls-1" points="9.57 36.16 9.57 41.32 9.57 46.49 9.57 51.66 9.57 56.82 14.73 56.82 14.73 51.66 14.73 46.49 14.73 41.32 14.73 36.16 14.73 30.99 9.57 30.99 9.57 36.16"/>
  <rect class="cls-1" x="14.73" y="25.83" width="5.17" height="5.17"/>
  <polygon class="cls-1" points="35.39 5.17 35.39 0 30.23 0 30.23 5.17 30.23 10.33 35.39 10.33 35.39 5.17"/>
  <rect class="cls-1" x="25.06" y="10.33" width="5.17" height="5.17"/>
  <polygon class="cls-1" points="30.23 20.66 30.23 25.83 30.23 30.99 30.23 36.16 30.23 41.32 30.23 46.49 30.23 51.66 30.23 56.82 35.39 56.82 35.39 51.66 35.39 46.49 35.39 41.32 35.39 36.16 35.39 30.99 35.39 25.83 35.39 20.66 35.39 15.5 30.23 15.5 30.23 20.66"/>
  <rect class="cls-1" x="35.39" y="10.33" width="5.17" height="5.17"/>
  <polygon class="cls-1" points="56.06 36.16 56.06 30.99 56.06 25.83 56.06 20.66 56.06 15.5 56.06 10.33 56.06 5.17 56.06 0 50.89 0 50.89 5.17 50.89 10.33 50.89 15.5 50.89 20.66 50.89 25.83 50.89 30.99 50.89 36.16 50.89 41.32 56.06 41.32 56.06 36.16"/>
  <rect class="cls-1" x="45.73" y="41.32" width="5.17" height="5.17"/>
  <polygon class="cls-1" points="50.89 51.66 50.89 56.82 56.06 56.82 56.06 51.66 56.06 46.49 50.89 46.49 50.89 51.66"/>
  <rect class="cls-1" x="56.06" y="41.32" width="5.17" height="5.17"/>
</svg>