<?xml version="1.0" encoding="UTF-8"?>
<svg id="Pantallas" xmlns="http://www.w3.org/2000/svg" viewBox="0 0 10.64 8.42">
  <defs>
    <style>
      .cls-1 {
        fill: #bfdfad;
      }
    </style>
  </defs>
  <polygon class="cls-1" points="10.19 0 9.75 0 9.31 0 8.86 0 8.86 .44 8.42 .44 8.42 .89 7.98 .89 7.98 1.33 7.53 1.33 7.53 1.77 7.09 1.77 7.09 2.21 6.65 2.21 6.65 2.66 6.2 2.66 6.2 3.1 5.76 3.1 5.76 3.55 5.32 3.55 5.32 3.99 4.87 3.99 4.87 4.43 4.43 4.43 4.43 4.88 3.99 4.88 3.99 5.32 3.55 5.32 3.55 5.76 3.1 5.76 3.1 5.32 2.66 5.32 2.66 4.88 2.21 4.88 2.21 4.43 1.77 4.43 1.77 3.99 1.33 3.99 1.33 3.55 .89 3.55 .44 3.55 0 3.55 0 3.99 0 4.43 0 4.88 0 5.32 0 5.76 .44 5.76 .44 6.2 .89 6.2 .89 6.65 1.33 6.65 1.33 7.09 1.77 7.09 1.77 7.53 2.21 7.53 2.21 7.98 2.66 7.98 2.66 8.42 3.1 8.42 3.55 8.42 3.99 8.42 3.99 7.98 4.43 7.98 4.43 7.53 4.87 7.53 4.87 7.09 5.32 7.09 5.32 6.65 5.76 6.65 5.76 6.2 6.2 6.2 6.2 5.76 6.65 5.76 6.65 5.32 7.09 5.32 7.09 4.88 7.53 4.88 7.53 4.43 7.98 4.43 7.98 3.99 8.42 3.99 8.42 3.55 8.86 3.55 8.86 3.1 9.31 3.1 9.31 2.66 9.75 2.66 9.75 2.21 10.19 2.21 10.19 1.77 10.64 1.77 10.64 1.33 10.64 .89 10.64 .44 10.64 0 10.19 0"/>
</svg>