<?xml version="1.0" encoding="UTF-8"?>
<svg id="Material_Referencias" data-name="Material &amp;amp; Referencias" xmlns="http://www.w3.org/2000/svg" viewBox="0 0 466.53 34.76">
  <defs>
    <style>
      .cls-1 {
        fill: #f3eee8;
      }
    </style>
  </defs>
  <rect class="cls-1" x="3.46" y="2.09" width="459.61" height="30.58"/>
  <g>
    <g>
      <path d="M49.98,10.73h1.39v12.86h-1.39v-12.86Z"/>
      <path d="M53.7,10.73h5.17c5.01,0,6.03,1.44,6.03,6.43s-1.02,6.43-6.03,6.43h-5.17v-12.86ZM58.87,22.31c3.92,0,4.63-.76,4.63-5.16s-.71-5.16-4.63-5.16h-3.78v10.31h3.78Z"/>
      <path d="M66.87,10.73h9.29v1.27h-7.9v4.3h7.52v1.27h-7.52v4.74h7.93v1.27h-9.32v-12.86Z"/>
      <path d="M78.05,10.73h2.03l8.1,11.48h.03v-11.48h1.32v12.86h-2.03l-8.1-11.49h-.03v11.49h-1.32v-12.86Z"/>
      <path d="M95.56,12h-4.74v-1.27h10.86v1.27h-4.74v11.58h-1.37v-11.58Z"/>
      <path d="M102.96,10.73h1.39v12.86h-1.39v-12.86Z"/>
      <path d="M110.38,12h-4.74v-1.27h10.86v1.27h-4.74v11.58h-1.37v-11.58Z"/>
      <path d="M122.04,18.99l-5.57-8.26h1.55l4.74,6.97,4.73-6.97h1.5l-5.57,8.26v4.59h-1.39v-4.59Z"/>
    </g>
    <g>
      <path d="M314.04,10.66h1.92l5.55,12.86h-1.49l-1.29-2.99h-7.5l-1.29,2.99h-1.45l5.55-12.86ZM318.19,19.25l-3.19-7.42h-.03l-3.19,7.42h6.41Z"/>
      <path d="M322.24,19.27v-8.61h1.39v8.34c0,2.46.48,3.44,4.25,3.44s4.26-.97,4.26-3.44v-8.34h1.39v8.61c0,3.04-1.02,4.46-5.65,4.46s-5.63-1.42-5.63-4.46Z"/>
      <path d="M339.47,11.93h-4.74v-1.27h10.86v1.27h-4.74v11.58h-1.37v-11.58Z"/>
      <path d="M345.93,17.09c0-5.21.96-6.68,6.1-6.68s6.11,1.47,6.11,6.68-.96,6.68-6.11,6.68-6.1-1.47-6.1-6.68ZM352.02,22.48c4.13,0,4.73-.79,4.73-5.39s-.59-5.39-4.73-5.39-4.71.79-4.71,5.39.59,5.39,4.71,5.39Z"/>
      <path d="M360.12,10.66h2.03l8.1,11.48h.03v-11.48h1.32v12.86h-2.03l-8.1-11.49h-.03v11.49h-1.32v-12.86Z"/>
      <path d="M373.58,17.09c0-5.21.96-6.68,6.1-6.68s6.11,1.47,6.11,6.68-.96,6.68-6.11,6.68-6.1-1.47-6.1-6.68ZM379.68,22.48c4.13,0,4.73-.79,4.73-5.39s-.59-5.39-4.73-5.39-4.71.79-4.71,5.39.59,5.39,4.71,5.39Z"/>
      <path d="M387.77,10.66h2.2l5.4,11.32h.03l5.4-11.32h2.2v12.86h-1.34v-11.52h-.02l-5.5,11.52h-1.52l-5.5-11.52h-.03v11.52h-1.32v-12.86Z"/>
      <path d="M409.59,18.92l-5.57-8.26h1.55l4.74,6.97,4.73-6.97h1.5l-5.57,8.26v4.59h-1.39v-4.59Z"/>
    </g>
    <g>
      <path d="M152.49,10.82h6.36c3.29,0,4.43,1.11,4.43,4.11s-1.14,4.13-4.43,4.13h-4.97v4.61h-1.39v-12.86ZM158.75,17.8c2.45,0,3.14-.69,3.14-2.86s-.69-2.84-3.14-2.84h-4.88v5.7h4.88Z"/>
      <path d="M164.86,10.82h5.77c3.64,0,4.81.92,4.81,3.65,0,1.92-.58,2.83-2.03,3.21v.05c1.52.21,2.02,1.07,2.02,2.94v3.01h-1.39v-2.58c0-2.26-.48-2.69-3.04-2.69h-4.74v5.27h-1.39v-12.86ZM170.99,17.15c2.4,0,3.07-.59,3.07-2.56s-.71-2.5-3.54-2.5h-4.28v5.06h4.74Z"/>
      <path d="M177.22,17.25c0-5.21.96-6.68,6.1-6.68s6.11,1.47,6.11,6.68-.96,6.68-6.11,6.68-6.1-1.47-6.1-6.68ZM183.32,22.64c4.13,0,4.73-.79,4.73-5.39s-.59-5.39-4.73-5.39-4.71.79-4.71,5.39.59,5.39,4.71,5.39Z"/>
      <path d="M191.41,10.82h5.17c5.01,0,6.03,1.44,6.03,6.43s-1.02,6.43-6.03,6.43h-5.17v-12.86ZM196.58,22.41c3.92,0,4.63-.76,4.63-5.16s-.71-5.16-4.63-5.16h-3.78v10.31h3.78Z"/>
      <path d="M204.49,19.43v-8.61h1.39v8.34c0,2.46.48,3.44,4.25,3.44s4.26-.97,4.26-3.44v-8.34h1.39v8.61c0,3.04-1.02,4.46-5.65,4.46s-5.63-1.42-5.63-4.46Z"/>
      <path d="M217.67,17.25c0-5.21,1.01-6.68,5.93-6.68,4.33,0,5.52,1.31,5.52,4.48v.15h-1.37v-.08c0-2.33-.66-3.25-4.15-3.25-3.88,0-4.54.79-4.54,5.39s.66,5.39,4.54,5.39c3.57,0,4.2-.81,4.2-3.47v-.08h1.37v.15c0,3.42-1.06,4.69-5.57,4.69-4.92,0-5.93-1.47-5.93-6.68Z"/>
      <path d="M234.26,12.1h-4.74v-1.27h10.86v1.27h-4.74v11.58h-1.37v-11.58Z"/>
      <path d="M241.66,10.82h1.39v12.86h-1.39v-12.86Z"/>
      <path d="M244.14,10.82h1.49l4.86,11.67h.03l4.84-11.67h1.45l-5.37,12.86h-1.92l-5.39-12.86Z"/>
      <path d="M257.9,10.82h1.39v12.86h-1.39v-12.86Z"/>
      <path d="M265.32,12.1h-4.74v-1.27h10.86v1.27h-4.74v11.58h-1.37v-11.58Z"/>
      <path d="M276.98,19.09l-5.57-8.26h1.55l4.74,6.97,4.73-6.97h1.5l-5.57,8.26v4.59h-1.39v-4.59Z"/>
    </g>
    <rect x="140.1" y="7.31" width="1.5" height="20.13"/>
    <rect x="295.37" y="7.31" width="1.5" height="20.13"/>
  </g>
</svg>