<?xml version="1.0" encoding="UTF-8"?>
<svg id="Material__x26__Referencias" xmlns="http://www.w3.org/2000/svg" version="1.1" viewBox="0 0 371.3 34.8">
  <!-- Generator: Adobe Illustrator 29.3.1, SVG Export Plug-In . SVG Version: 2.1.0 Build 151)  -->
  <g>
    <path d="M2.4,10.7h1.4v12.9h-1.4v-12.9Z"/>
    <path d="M6.1,10.7h5.2c5,0,6,1.4,6,6.4s-1,6.4-6,6.4h-5.2v-12.9ZM11.2,22.3c3.9,0,4.6-.8,4.6-5.2s-.7-5.2-4.6-5.2h-3.8v10.3h3.8Z"/>
    <path d="M19.2,10.7h9.3v1.3h-7.9v4.3h7.5v1.3h-7.5v4.7h7.9v1.3h-9.3v-12.9Z"/>
    <path d="M30.4,10.7h2l8.1,11.5h0v-11.5h1.3v12.9h-2l-8.1-11.5h0v11.5h-1.3v-12.9Z"/>
    <path d="M47.9,12h-4.7v-1.3h10.9v1.3h-4.7v11.6h-1.4v-11.6Z"/>
    <path d="M55.3,10.7h1.4v12.9h-1.4v-12.9Z"/>
    <path d="M62.8,12h-4.7v-1.3h10.9v1.3h-4.7v11.6h-1.4v-11.6Z"/>
    <path d="M74.4,19l-5.6-8.3h1.6l4.7,7,4.7-7h1.5l-5.6,8.3v4.6h-1.4v-4.6Z"/>
  </g>
  <g>
    <path d="M266.4,10.7h1.9l5.6,12.9h-1.5l-1.3-3h-7.5l-1.3,3h-1.5l5.6-12.9ZM270.6,19.3l-3.2-7.4h0l-3.2,7.4h6.4Z"/>
    <path d="M274.6,19.3v-8.6h1.4v8.3c0,2.5.5,3.4,4.2,3.4s4.3-1,4.3-3.4v-8.3h1.4v8.6c0,3-1,4.5-5.7,4.5s-5.6-1.4-5.6-4.5Z"/>
    <path d="M291.8,11.9h-4.7v-1.3h10.9v1.3h-4.7v11.6h-1.4v-11.6Z"/>
    <path d="M298.3,17.1c0-5.2,1-6.7,6.1-6.7s6.1,1.5,6.1,6.7-1,6.7-6.1,6.7-6.1-1.5-6.1-6.7ZM304.4,22.5c4.1,0,4.7-.8,4.7-5.4s-.6-5.4-4.7-5.4-4.7.8-4.7,5.4.6,5.4,4.7,5.4Z"/>
    <path d="M312.5,10.7h2l8.1,11.5h0v-11.5h1.3v12.9h-2l-8.1-11.5h0v11.5h-1.3v-12.9Z"/>
    <path d="M326,17.1c0-5.2,1-6.7,6.1-6.7s6.1,1.5,6.1,6.7-1,6.7-6.1,6.7-6.1-1.5-6.1-6.7ZM332.1,22.5c4.1,0,4.7-.8,4.7-5.4s-.6-5.4-4.7-5.4-4.7.8-4.7,5.4.6,5.4,4.7,5.4Z"/>
    <path d="M340.1,10.7h2.2l5.4,11.3h0l5.4-11.3h2.2v12.9h-1.3v-11.5h0l-5.5,11.5h-1.5l-5.5-11.5h0v11.5h-1.3v-12.9Z"/>
    <path d="M362,18.9l-5.6-8.3h1.6l4.7,7,4.7-7h1.5l-5.6,8.3v4.6h-1.4v-4.6Z"/>
  </g>
  <g>
    <path d="M104.9,10.8h6.4c3.3,0,4.4,1.1,4.4,4.1s-1.1,4.1-4.4,4.1h-5v4.6h-1.4v-12.9ZM111.1,17.8c2.4,0,3.1-.7,3.1-2.9s-.7-2.8-3.1-2.8h-4.9v5.7h4.9Z"/>
    <path d="M117.2,10.8h5.8c3.6,0,4.8.9,4.8,3.7s-.6,2.8-2,3.2h0c1.5.3,2,1.1,2,3v3h-1.4v-2.6c0-2.3-.5-2.7-3-2.7h-4.7v5.3h-1.4v-12.9ZM123.4,17.2c2.4,0,3.1-.6,3.1-2.6s-.7-2.5-3.5-2.5h-4.3v5.1h4.7Z"/>
    <path d="M129.6,17.3c0-5.2,1-6.7,6.1-6.7s6.1,1.5,6.1,6.7-1,6.7-6.1,6.7-6.1-1.5-6.1-6.7ZM135.7,22.6c4.1,0,4.7-.8,4.7-5.4s-.6-5.4-4.7-5.4-4.7.8-4.7,5.4.6,5.4,4.7,5.4Z"/>
    <path d="M143.8,10.8h5.2c5,0,6,1.4,6,6.4s-1,6.4-6,6.4h-5.2v-12.9ZM149,22.4c3.9,0,4.6-.8,4.6-5.2s-.7-5.2-4.6-5.2h-3.8v10.3h3.8Z"/>
    <path d="M156.9,19.4v-8.6h1.4v8.3c0,2.5.5,3.4,4.2,3.4s4.3-1,4.3-3.4v-8.3h1.4v8.6c0,3-1,4.5-5.7,4.5s-5.6-1.4-5.6-4.5Z"/>
    <path d="M170.1,17.3c0-5.2,1-6.7,5.9-6.7s5.5,1.3,5.5,4.5h0c0,.1-1.4.1-1.4.1h0c0-2.4-.7-3.3-4.1-3.3s-4.5.8-4.5,5.4.7,5.4,4.5,5.4,4.2-.8,4.2-3.5h0c0,0,1.4,0,1.4,0h0c0,3.6-1.1,4.8-5.6,4.8s-5.9-1.5-5.9-6.7Z"/>
    <path d="M186.6,12.1h-4.7v-1.3h10.9v1.3h-4.7v11.6h-1.4v-11.6Z"/>
    <path d="M194,10.8h1.4v12.9h-1.4v-12.9Z"/>
    <path d="M196.5,10.8h1.5l4.9,11.7h0l4.8-11.7h1.5l-5.4,12.9h-1.9l-5.4-12.9Z"/>
    <path d="M210.3,10.8h1.4v12.9h-1.4v-12.9Z"/>
    <path d="M217.7,12.1h-4.7v-1.3h10.9v1.3h-4.7v11.6h-1.4v-11.6Z"/>
    <path d="M229.4,19.1l-5.6-8.3h1.6l4.7,7,4.7-7h1.5l-5.6,8.3v4.6h-1.4v-4.6Z"/>
  </g>
  <rect x="92.5" y="7.3" width="1.5" height="20.1"/>
  <rect x="247.7" y="7.3" width="1.5" height="20.1"/>
</svg>