<?xml version="1.0" encoding="UTF-8"?>
<svg id="Pantallas" xmlns="http://www.w3.org/2000/svg" viewBox="0 0 95 75">
  <defs>
    <style>
      .cls-1 {
        fill: none;
        stroke: #f3eee8;
        stroke-miterlimit: 10;
      }

      .cls-2 {
        fill: #f3eee8;
      }
    </style>
  </defs>
  <path class="cls-1" d="M90.41,37.51c0,16.57-18.11,29.99-40.46,29.99h-4.93c-22.33,0-40.43-13.42-40.43-29.99S22.69,7.5,45.02,7.5h4.93c22.34,0,40.46,13.45,40.46,30Z"/>
  <g>
    <polygon class="cls-2" points="57.65 15.24 57.65 19.31 55.79 19.31 55.79 27.45 51.72 27.45 51.72 19.31 44.13 19.31 44.13 27.45 40.06 27.45 40.06 19.31 37.29 19.31 37.29 15.24 57.65 15.24"/>
    <rect class="cls-2" x="39.21" y="47.72" width=".79" height=".04"/>
    <polygon class="cls-2" points="69.92 27.4 69.92 47.76 65.85 47.76 65.85 39.62 59.86 39.62 59.86 47.76 55.79 47.76 55.79 39.62 40 39.62 40 47.72 39.21 47.72 39.21 47.76 35.93 47.76 35.93 39.62 29.15 39.62 29.15 47.76 25.08 47.76 25.08 27.4 29.15 27.4 29.15 35.55 35.93 35.55 35.93 27.4 40 27.4 40 35.55 55.79 35.55 55.79 27.4 59.86 27.4 59.86 35.55 65.85 35.55 65.85 27.4 69.92 27.4"/>
    <rect class="cls-2" x="29.15" y="23.38" width="4.07" height="4.07"/>
    <rect class="cls-2" x="61.78" y="23.38" width="4.07" height="4.07"/>
    <rect class="cls-2" x="33.22" y="19.31" width="4.07" height="4.07" transform="translate(13.91 56.6) rotate(-90)"/>
    <rect class="cls-2" x="57.71" y="19.31" width="4.07" height="4.07" transform="translate(38.4 81.09) rotate(-90)"/>
    <polygon class="cls-2" points="57.71 55.86 57.71 59.93 37.35 59.93 37.35 55.86 39.21 55.86 39.21 47.76 40 47.76 40 47.72 43.28 47.72 43.28 55.86 50.88 55.86 50.88 47.72 54.95 47.72 54.95 55.86 57.71 55.86"/>
    <rect class="cls-2" x="39.21" y="47.72" width=".79" height=".04"/>
    <rect class="cls-2" x="61.78" y="47.72" width="4.07" height="4.07"/>
    <rect class="cls-2" x="29.15" y="47.72" width="4.07" height="4.07"/>
    <rect class="cls-2" x="57.71" y="51.79" width="4.07" height="4.07" transform="translate(113.58 -5.92) rotate(90)"/>
    <rect class="cls-2" x="33.22" y="51.79" width="4.07" height="4.07" transform="translate(89.09 18.57) rotate(90)"/>
  </g>
</svg>