<?xml version="1.0" encoding="UTF-8"?><svg id="Pantallas" xmlns="http://www.w3.org/2000/svg" viewBox="0 0 14.02 14.02"><defs><style>.cls-1{fill:#f3eee8;}</style></defs><path class="cls-1" d="M12.81.32h-.89v.89h-.89v.89h-.89v.89h-.89v.89h-.89v.89h-.89v.89h-.89v-.89h-.89v-.89h-.89v-.89h-.89v-.89h-.89v-.89h-.89V.32h-.89v.89H.32v.89h.89v.89h.89v.89h.89v.89h.89v.89h.89v.89h.89v.89h-.89v.89h-.89v.89h-.89v.89h-.89v.89h-.89v.89H.32v.89h.89v.89h.89v-.89h.89v-.89h.89v-.89h.89v-.89h.89v-.89h.89v-.89h.89v.89h.89v.89h.89v.89h.89v.89h.89v.89h.89v.89h.89v-.89h.89v-.89h-.89v-.89h-.89v-.89h-.89v-.89h-.89v-.89h-.89v-.89h-.89v-.89h.89v-.89h.89v-.89h.89v-.89h.89v-.89h.89v-.89h.89v-.89h-.89V.32Z"/></svg>