<?xml version="1.0" encoding="UTF-8"?>
<svg id="Pantallas" xmlns="http://www.w3.org/2000/svg" viewBox="0 0 107.36 75">
  <defs>
    <style>
      .cls-1 {
        fill: #bfdfad;
        stroke: #bfdfad;
        stroke-miterlimit: 10;
        stroke-width: .5px;
      }

      .cls-2 {
        fill: #f3eee8;
      }
    </style>
  </defs>
  <path class="cls-2" d="M22.02,27.66h-4.15c-.17,0-.31-.14-.31-.31s.14-.31.31-.31h4.15c.17,0,.31.14.31.31s-.14.31-.31.31Z"/>
  <path class="cls-1" d="M100.61,24.42h-14.29V3.49c0-.38-.31-.69-.68-.69H8.57c-.38,0-.68.31-.68.69v45.72c0,.31.2.58.5.66.06.02.11.02.17.02h15.3v21.62c0,.38.31.69.69.69h76.06c.38,0,.68-.31.68-.69V25.1c0-.37-.3-.68-.68-.68ZM23.86,49.26h-14.52l14.4-24.2s.03-.04.07-.03c.05.02.05.05.05.06v24.17ZM23.86,24.42s-.04-.01-.07-.01c-.23,0-.45.12-.58.33l-14.59,24.5s0,0-.01.02c-.01,0-.03,0-.05,0h-.01s-.04-.05-.04-.06V3.49s.03-.06.06-.06h77.07s.06.02.06.06v20.93H23.86ZM100.67,71.51s-.03.06-.06.06H24.55s-.07-.02-.07-.06V25.09s0-.04-.01-.05h76.14s.06.03.06.06v46.41Z"/>
  <path class="cls-1" d="M8.61,49.26s-.03,0-.05,0h0s.05,0,.05,0Z"/>
  <path class="cls-2" d="M33.06,14.02h-15.19c-.17,0-.31-.14-.31-.31s.14-.31.31-.31h15.19c.17,0,.31.14.31.31s-.14.31-.31.31Z"/>
  <path class="cls-2" d="M72.79,20.09H17.87c-.17,0-.31-.14-.31-.31s.14-.31.31-.31h54.92c.17,0,.31.14.31.31s-.14.31-.31.31Z"/>
  <path class="cls-2" d="M93.22,32.12h-60.84c-.17,0-.31-.14-.31-.31s.14-.31.31-.31h60.84c.17,0,.31.14.31.31s-.14.31-.31.31Z"/>
  <path class="cls-2" d="M93.22,36.06h-60.84c-.17,0-.31-.14-.31-.31s.14-.31.31-.31h60.84c.17,0,.31.14.31.31s-.14.31-.31.31Z"/>
  <path class="cls-2" d="M67.06,40h-34.68c-.17,0-.31-.14-.31-.31s.14-.31.31-.31h34.68c.17,0,.31.14.31.31s-.14.31-.31.31Z"/>
  <path class="cls-2" d="M72.79,24.06H17.87c-.17,0-.31-.14-.31-.31s.14-.31.31-.31h54.92c.17,0,.31.14.31.31s-.14.31-.31.31Z"/>
  <path class="cls-2" d="M32.54,55.61c2.17.11,4.35.02,6.5-.27s4.31-.72,6.34-1.46c.66-.24,1.37-.6,1.78-1.19.37-.53.37-1.24-.03-1.76-.88-1.16-2.91-1.07-4.18-.85-.76.13-1.5.42-2.07.96-.66.63-.91,1.53-1.05,2.41-.32,2.08-.7,4.1-1.4,6.09-.33.94-.67,1.98-1.27,2.78-.68.91-1.71,1.03-2.75.78-.8-.19-2.08-.49-2.34-1.39-.29-.98.48-1.85,1.25-2.33.89-.56,1.93-.98,2.94-1.26s2.12-.42,3.13-.05c.88.32,1.48,1.18,2.49,1.04.78-.11,1.46-.69,1.63-1.47.03-.12-.03-.26-.16-.29-.81-.19-1.31.85-.76,1.43.71.75,1.73.22,2.38-.3,1.71-1.37,3.06-3.18,3.92-5.19.1-.24-.16-.47-.37-.28-1.7,1.51-3.08,3.36-4.03,5.42-.24.52-.45,1.05-.63,1.59-.17.5-.39,1.05-.36,1.59.05.94.92,1.26,1.74,1.17.5-.05.98-.22,1.46-.36.64-.19,1.29-.38,1.93-.56,1.29-.35,2.6-.68,3.91-.97,2.67-.59,5.38-1.04,8.1-1.36,3.01-.35,6.04-.52,9.08-.52.3,0,.3-.47,0-.47-5.02,0-10.03.48-14.96,1.42-2.47.47-4.91,1.05-7.32,1.75-.55.16-1.1.35-1.66.49-.41.11-.9.2-1.32.05-.61-.22-.52-.88-.37-1.39s.32-1.01.51-1.5c.92-2.31,2.4-4.38,4.25-6.03l-.37-.28c-.6,1.39-1.42,2.68-2.45,3.79-.5.54-1.05,1.08-1.66,1.5-.33.23-.74.43-1.14.3-.15-.05-.32-.15-.39-.31-.11-.24.09-.6.38-.53l-.16-.29c-.17.78-1.04,1.35-1.82,1.08-.44-.15-.78-.51-1.18-.74-.37-.2-.77-.34-1.18-.41-1.75-.31-3.55.39-5.1,1.15-.73.36-1.47.81-1.89,1.52-.36.62-.48,1.43-.12,2.07.39.71,1.28.99,2.01,1.22.84.27,1.79.44,2.64.1.77-.31,1.26-1.01,1.61-1.73.43-.9.78-1.84,1.09-2.79s.58-1.99.79-3.01c.19-.96.27-1.94.47-2.89s.63-1.72,1.49-2.17c.76-.4,1.66-.48,2.51-.48.73,0,1.6.08,2.18.57.72.6.35,1.46-.3,1.92-.83.59-1.92.81-2.89,1.08-1.18.32-2.38.57-3.59.77-2.4.38-4.83.5-7.25.38-.3-.01-.3.45,0,.47h0Z"/>
</svg>