<?xml version="1.0" encoding="UTF-8"?>
<svg id="Pantallas" xmlns="http://www.w3.org/2000/svg" version="1.1" viewBox="0 0 75 75">
  <!-- Generator: Adobe Illustrator 29.4.0, SVG Export Plug-In . SVG Version: 2.1.0 Build 152)  -->
  <polygon points="49.4 11.3 49.4 16.1 47.2 16.1 47.2 25.7 42.5 25.7 42.5 16.1 33.5 16.1 33.5 25.7 28.8 25.7 28.8 16.1 25.5 16.1 25.5 11.3 49.4 11.3"/>
  <rect x="27.8" y="49.5" width=".9" height="0"/>
  <polygon points="63.8 25.6 63.8 49.5 59.1 49.5 59.1 40 52 40 52 49.5 47.2 49.5 47.2 40 28.7 40 28.7 49.5 27.8 49.5 27.8 49.5 23.9 49.5 23.9 40 15.9 40 15.9 49.5 11.2 49.5 11.2 25.6 15.9 25.6 15.9 35.2 23.9 35.2 23.9 25.6 28.7 25.6 28.7 35.2 47.2 35.2 47.2 25.6 52 25.6 52 35.2 59.1 35.2 59.1 25.6 63.8 25.6"/>
  <rect x="15.9" y="20.9" width="4.8" height="4.8"/>
  <rect x="54.3" y="20.9" width="4.8" height="4.8"/>
  <rect x="20.7" y="16.1" width="4.8" height="4.8" transform="translate(4.6 41.6) rotate(-90)"/>
  <rect x="49.5" y="16.1" width="4.8" height="4.8" transform="translate(33.4 70.4) rotate(-90)"/>
  <polygon points="49.5 59.1 49.5 63.8 25.6 63.8 25.6 59.1 27.8 59.1 27.8 49.5 28.7 49.5 28.7 49.5 32.5 49.5 32.5 59.1 41.5 59.1 41.5 49.5 46.3 49.5 46.3 59.1 49.5 59.1"/>
  <rect x="27.8" y="49.5" width=".9" height="0"/>
  <rect x="54.3" y="49.5" width="4.8" height="4.8"/>
  <rect x="15.9" y="49.5" width="4.8" height="4.8"/>
  <rect x="49.5" y="54.3" width="4.8" height="4.8" transform="translate(108.5 4.8) rotate(90)"/>
  <rect x="20.7" y="54.3" width="4.8" height="4.8" transform="translate(79.8 33.5) rotate(90)"/>
</svg>