<?xml version="1.0" encoding="UTF-8"?>
<svg id="Pantallas" xmlns="http://www.w3.org/2000/svg" viewBox="0 0 75 75">
  <defs>
    <style>
      .cls-1 {
        fill: #f3eee8;
      }
    </style>
  </defs>
  <polygon class="cls-1" points="37.5 46.48 31.52 46.48 25.53 46.48 25.53 52.47 31.52 52.47 37.5 52.47 43.48 52.47 43.48 46.48 37.5 46.48"/>
  <polygon class="cls-1" points="43.48 34.5 37.5 34.5 31.52 34.5 25.53 34.5 25.53 40.5 31.52 40.5 37.5 40.5 43.48 40.5 49.47 40.5 49.47 34.5 43.48 34.5"/>
  <polygon class="cls-1" points="43.48 22.53 37.5 22.53 31.52 22.53 25.53 22.53 25.53 28.52 31.52 28.52 37.5 28.52 43.48 28.52 49.47 28.52 49.47 22.53 43.48 22.53"/>
  <g>
    <polygon class="cls-1" points="55.45 16.55 55.45 22.53 55.45 28.52 55.45 34.5 55.45 40.5 55.45 46.48 55.45 52.47 55.45 58.45 55.45 64.43 61.44 64.43 61.44 58.45 61.44 52.47 61.44 46.48 61.44 40.5 61.44 34.5 61.44 28.52 61.44 22.53 61.44 16.55 55.45 16.55"/>
    <polygon class="cls-1" points="43.48 64.43 37.5 64.43 31.52 64.43 25.53 64.43 19.55 64.43 19.55 70.42 25.53 70.42 31.52 70.42 37.5 70.42 43.48 70.42 49.47 70.42 55.45 70.42 55.45 64.43 49.47 64.43 43.48 64.43"/>
    <polygon class="cls-1" points="49.47 16.55 55.45 16.55 55.45 10.56 49.47 10.56 43.48 10.56 43.48 16.55 49.47 16.55"/>
    <polygon class="cls-1" points="19.55 52.47 19.55 46.48 19.55 40.5 19.55 34.5 19.55 28.52 19.55 22.53 19.55 16.55 19.55 10.56 13.56 10.56 13.56 16.55 13.56 22.53 13.56 28.52 13.56 34.5 13.56 40.5 13.56 46.48 13.56 52.47 13.56 58.45 13.56 64.43 19.55 64.43 19.55 58.45 19.55 52.47"/>
    <polygon class="cls-1" points="31.52 10.56 37.5 10.56 43.48 10.56 43.48 4.58 37.5 4.58 31.52 4.58 25.53 4.58 19.55 4.58 19.55 10.56 25.53 10.56 31.52 10.56"/>
  </g>
</svg>