<?xml version="1.0" encoding="UTF-8"?>
<svg id="Capa_1" xmlns="http://www.w3.org/2000/svg" version="1.1" viewBox="0 0 62 64">
  <!-- Generator: Adobe Illustrator 29.3.1, SVG Export Plug-In . SVG Version: 2.1.0 Build 151)  -->
  <path d="M4,44c-2.2,0-4,1.8-4,4v4c0,6.6,5.4,12,12,12h38c6.6,0,12-5.4,12-12v-4c0-2.2-1.8-4-4-4s-4,1.8-4,4v4c0,2.2-1.8,4-4,4H12c-2.2,0-4-1.8-4-4v-4c0-2.2-1.8-4-4-4Z"/>
  <path d="M31,0h0C28.8,0,27,1.8,27,4v29.3l-6-6c-1.4-1.4-3.6-1.7-5.3-.6-1.8,1.3-2.3,3.7-1,5.6.1.2.3.4.5.6l9.6,9.6c3.4,3.4,9,3.4,12.4,0l9.6-9.6c1.6-1.6,1.6-4.1,0-5.7-.2-.2-.4-.3-.6-.5-1.7-1.1-3.9-.8-5.3.6l-6,6V4c0-2.2-1.8-4-4-4,0,0,0,0,0,0Z"/>
</svg>