<?xml version="1.0" encoding="UTF-8"?>
<svg id="Material_Referencias" data-name="Material &amp;amp; Referencias" xmlns="http://www.w3.org/2000/svg" viewBox="0 0 62.5 56.82">
  <defs>
    <style>
      .cls-1 {
        fill: #92d178;
      }
    </style>
  </defs>
  <polygon class="cls-1" points="36.93 22.73 36.93 17.05 31.25 17.05 25.57 17.05 25.57 22.73 31.25 22.73 36.93 22.73"/>
  <polygon class="cls-1" points="31.25 11.37 36.93 11.37 42.61 11.37 42.61 5.68 36.93 5.68 36.93 0 31.25 0 25.57 0 25.57 5.68 19.89 5.68 19.89 11.37 25.57 11.37 31.25 11.37"/>
  <rect class="cls-1" x="42.61" y="11.37" width="5.68" height="5.68"/>
  <polygon class="cls-1" points="53.98 22.73 53.98 17.05 48.3 17.05 48.3 22.73 48.3 28.41 48.3 34.09 48.3 39.77 53.98 39.77 53.98 34.09 59.66 34.09 59.66 28.41 59.66 22.73 53.98 22.73"/>
  <rect class="cls-1" x="42.61" y="39.77" width="5.68" height="5.68"/>
  <polygon class="cls-1" points="31.25 45.46 25.57 45.46 19.89 45.46 19.89 51.14 25.57 51.14 25.57 56.82 31.25 56.82 36.93 56.82 36.93 51.14 42.61 51.14 42.61 45.46 36.93 45.46 31.25 45.46"/>
  <rect class="cls-1" x="14.2" y="39.77" width="5.68" height="5.68"/>
  <polygon class="cls-1" points="14.2 28.41 14.2 22.73 14.2 17.05 8.52 17.05 8.52 22.73 2.84 22.73 2.84 28.41 2.84 34.09 8.52 34.09 8.52 39.77 14.2 39.77 14.2 34.09 14.2 28.41"/>
  <rect class="cls-1" x="14.2" y="11.37" width="5.68" height="5.68"/>
  <polygon class="cls-1" points="36.93 28.41 36.93 34.09 42.61 34.09 42.61 28.41 42.61 22.73 36.93 22.73 36.93 28.41"/>
  <polygon class="cls-1" points="25.57 34.09 25.57 39.77 31.25 39.77 36.93 39.77 36.93 34.09 31.25 34.09 25.57 34.09"/>
  <polygon class="cls-1" points="25.57 22.73 19.89 22.73 19.89 28.41 19.89 34.09 25.57 34.09 25.57 28.41 25.57 22.73"/>
</svg>