<?xml version="1.0" encoding="UTF-8"?>
<svg id="Pantallas" xmlns="http://www.w3.org/2000/svg" viewBox="0 0 62.5 56.82">
  <defs>
    <style>
      .cls-1 {
        fill: #92d178;
      }
    </style>
  </defs>
  <polygon class="cls-1" points="7.57 42.62 2.84 42.62 2.84 47.35 2.84 52.09 7.57 52.09 7.57 47.35 7.57 42.62"/>
  <rect class="cls-1" x="7.57" y="37.88" width="4.74" height="4.74"/>
  <rect class="cls-1" x="12.31" y="33.15" width="4.74" height="4.74"/>
  <rect class="cls-1" x="17.04" y="28.41" width="4.74" height="4.74"/>
  <polygon class="cls-1" points="26.51 23.68 26.51 18.94 26.51 14.21 26.51 9.47 21.78 9.47 21.78 14.21 21.78 18.94 21.78 23.68 21.78 28.41 26.51 28.41 26.51 23.68"/>
  <polygon class="cls-1" points="45.45 52.09 40.72 52.09 35.98 52.09 31.25 52.09 26.51 52.09 21.78 52.09 17.04 52.09 12.31 52.09 7.57 52.09 7.57 56.82 12.31 56.82 17.04 56.82 21.78 56.82 26.51 56.82 31.25 56.82 35.98 56.82 40.72 56.82 45.45 56.82 50.19 56.82 54.92 56.82 54.92 52.09 50.19 52.09 45.45 52.09"/>
  <polygon class="cls-1" points="54.92 42.62 54.92 47.35 54.92 52.09 59.66 52.09 59.66 47.35 59.66 42.62 54.92 42.62"/>
  <rect class="cls-1" x="50.19" y="37.88" width="4.74" height="4.74"/>
  <rect class="cls-1" x="45.45" y="33.15" width="4.74" height="4.74"/>
  <rect class="cls-1" x="40.72" y="28.41" width="4.74" height="4.74"/>
  <rect class="cls-1" x="17.04" y="4.74" width="4.74" height="4.74"/>
  <polygon class="cls-1" points="35.98 14.21 35.98 18.94 35.98 23.68 35.98 28.41 40.72 28.41 40.72 23.68 40.72 18.94 40.72 14.21 40.72 9.47 35.98 9.47 35.98 14.21"/>
  <rect class="cls-1" x="40.72" y="4.74" width="4.74" height="4.74"/>
  <polygon class="cls-1" points="31.25 4.74 35.98 4.74 40.72 4.74 40.72 0 35.98 0 31.25 0 26.51 0 21.78 0 21.78 4.74 26.51 4.74 31.25 4.74"/>
</svg>