<?xml version="1.0" encoding="UTF-8"?><svg id="Pantallas" xmlns="http://www.w3.org/2000/svg" viewBox="0 0 75 75"><rect x="13.88" y="61.12" width="47.25" height="4.72"/><rect x="9.15" y="56.4" width="4.72" height="4.72"/><rect x="61.12" y="56.4" width="4.72" height="4.72"/><rect x="4.43" y="28.05" width="4.72" height="28.35"/><rect x="65.85" y="28.05" width="4.72" height="28.35"/><rect x="51.67" y="23.33" width="14.17" height="4.72"/><rect x="46.95" y="13.88" width="4.72" height="9.45"/><rect x="28.05" y="9.15" width="18.9" height="4.72"/><rect x="23.33" y="13.88" width="4.72" height="9.45"/><rect x="32.78" y="28.05" width="9.45" height="4.72"/><rect x="42.22" y="32.78" width="4.72" height="4.72"/><rect x="28.05" y="32.78" width="4.72" height="4.72"/><rect x="23.33" y="37.5" width="4.72" height="9.45"/><rect x="28.05" y="46.95" width="4.72" height="4.72"/><rect x="32.78" y="51.67" width="9.45" height="4.72"/><rect x="46.95" y="37.5" width="4.72" height="9.45"/><rect x="42.22" y="46.95" width="4.72" height="4.72"/><polygon points="18.6 23.33 18.6 18.6 13.88 18.6 13.88 23.33 9.15 23.33 9.15 28.05 23.33 28.05 23.33 23.33 18.6 23.33"/></svg>