<?xml version="1.0" encoding="UTF-8"?>
<svg id="Material_Referencias" data-name="Material &amp;amp; Referencias" xmlns="http://www.w3.org/2000/svg" viewBox="0 0 62.5 56.82">
  <defs>
    <style>
      .cls-1 {
        fill: #92d178;
        fill-rule: evenodd;
      }
    </style>
  </defs>
  <path class="cls-1" d="M16.4,0v4.74h29.7V0h-29.7ZM46.1,4.74v4.74h4.95v-4.74h-4.95ZM51.05,9.47v4.74h4.95v-4.74h-4.95ZM56,14.21v28.42h4.95V14.21h-4.95ZM56,42.63h-4.95v4.74h4.95v-4.74h0ZM51.05,47.37h-4.95v4.74h4.95v-4.74h0ZM46.1,52.11h-29.7v4.74h29.7v-4.74h0ZM16.4,52.11v-4.74h-4.95v4.74h4.95ZM11.45,47.37v-4.74h-4.95v4.74h4.95ZM6.5,42.63V14.21H1.55v28.42h4.95ZM6.5,14.21h4.95v-4.74h-4.95v4.74h0ZM11.45,9.47h4.95v-4.74h-4.95v4.74h0ZM26.3,14.21v4.74h-4.95v4.74h-4.95v4.74h9.9v14.21h9.9v-14.21h9.9v-4.74h-4.95v-4.74h-4.95v-4.74h-9.9Z"/>
</svg>