<?xml version="1.0" encoding="UTF-8"?>
<svg id="Material_Referencias" data-name="Material &amp;amp; Referencias" xmlns="http://www.w3.org/2000/svg" viewBox="0 0 275.21 89.17">
  <defs>
    <style>
      .cls-1 {
        fill: #f3eee8;
      }
    </style>
  </defs>
  <g>
    <path class="cls-1" d="M11.23,18.38h11.6l1.93,8.74,1.93,8.79,2.63-8.79,2.59-8.74h10.15l2.59,8.74,2.64,8.87,1.93-8.87,1.98-8.74h11.16l-8.22,30.75h-12.39l-2.5-8.48-2.46-8.61-2.5,8.61-2.51,8.48h-12.35l-8.22-30.75Z"/>
    <path class="cls-1" d="M59.82,36.75c0-8.22,6.68-13.18,16.65-13.18s16.61,4.96,16.61,13.18-6.68,13.18-16.61,13.18-16.65-5.01-16.65-13.18ZM81.22,36.79c0-3.95-1.93-5.8-4.75-5.8s-4.79,1.85-4.79,5.76,1.93,5.8,4.79,5.8,4.75-1.85,4.75-5.76Z"/>
    <path class="cls-1" d="M94.57,24.31h12.52v4.74c2.02-3.34,5.19-5.18,9.84-5.18h.31v9.05c-1.05-.31-2.2-.44-3.38-.44-2.73,0-5.41.79-6.77,2.33v14.32h-12.52v-24.82Z"/>
    <path class="cls-1" d="M118.74,18.38h12.35l-.09,15.46,8.92-9.53h12.65l-9.58,9.8,9.84,15.03h-13.49l-5.05-8.48-3.25,3.16.04,5.31h-12.35v-30.75Z"/>
    <path class="cls-1" d="M153.36,18.38h12.92v22.93h19.55v7.82h-32.47v-30.75Z"/>
    <path class="cls-1" d="M187.5,16.67h12.48v5.93h-12.48v-5.93ZM187.5,24.31h12.48v24.82h-12.48v-24.82Z"/>
    <path class="cls-1" d="M208.71,30.82h-7.29v-6.5h7.29v-.88c0-4.7,2.46-7.16,8.13-7.16h12.08v5.8h-6.15c-1.27,0-1.76.48-1.76,1.49v.75h7.91v6.5h-7.91v18.32h-12.3v-18.32Z"/>
    <path class="cls-1" d="M228.97,36.75c0-8.04,6.77-13.18,16.21-13.18s16.21,5.05,16.21,13.62v.7h-20.65c.31,3.6,2.02,5.23,4.66,5.23,2.11,0,3.69-1.1,4.35-3.47h11.47c-1.41,6.37-7.78,10.28-16.08,10.28-9.45,0-16.17-5.05-16.17-13.18ZM240.96,34.02h8.74c-.66-2.68-2.2-3.95-4.35-3.95s-3.82,1.27-4.39,3.95Z"/>
  </g>
  <g>
    <path class="cls-1" d="M81.44,63.09h8.13c3.97,0,5.39,1.06,5.39,4.25,0,2.26-.71,3.32-2.48,3.73v.04c2.11.41,2.93,1.55,2.93,4.14,0,3.47-1.49,4.61-5.71,4.61h-8.26v-16.77ZM89.93,70.34c2.39,0,3.23-.6,3.23-2.8s-.84-2.78-3.6-2.78h-6.32v5.59h6.69ZM89.69,78.2c2.98,0,3.9-.6,3.9-3.1s-.88-3.11-3.51-3.11h-6.84v6.21h6.45Z"/>
    <path class="cls-1" d="M103.08,63.09h2.5l7.24,16.77h-1.94l-1.68-3.9h-9.79l-1.68,3.9h-1.9l7.24-16.77ZM108.49,74.3l-4.16-9.68h-.04l-4.16,9.68h8.37Z"/>
    <path class="cls-1" d="M114.24,63.09h1.81v15.11h9.51v1.66h-11.32v-16.77Z"/>
    <path class="cls-1" d="M132.86,63.09h2.5l7.24,16.77h-1.94l-1.68-3.9h-9.79l-1.68,3.9h-1.9l7.24-16.77ZM138.28,74.3l-4.16-9.68h-.04l-4.16,9.68h8.37Z"/>
    <path class="cls-1" d="M144.03,63.09h2.65l10.57,14.98h.04v-14.98h1.72v16.77h-2.65l-10.57-14.98h-.04v14.98h-1.72v-16.77Z"/>
    <path class="cls-1" d="M161.59,71.48c0-6.79,1.31-8.71,7.74-8.71,5.65,0,7.2,1.7,7.2,5.84v.19h-1.79v-.11c0-3.04-.86-4.25-5.41-4.25-5.06,0-5.93,1.04-5.93,7.03s.86,7.03,5.93,7.03c4.66,0,5.48-1.05,5.48-4.53v-.11h1.79v.19c0,4.46-1.38,6.12-7.27,6.12-6.42,0-7.74-1.92-7.74-8.71Z"/>
    <path class="cls-1" d="M179.03,63.09h12.12v1.66h-10.31v5.61h9.81v1.66h-9.81v6.19h10.35v1.66h-12.16v-16.77Z"/>
  </g>
</svg>