<?xml version="1.0" encoding="UTF-8"?>
<svg id="Pantallas" xmlns="http://www.w3.org/2000/svg" viewBox="0 0 75 75">
  <defs>
    <style>
      .cls-1 {
        fill: #f3eee8;
      }
    </style>
  </defs>
  <rect class="cls-1" x="35.64" y="9.65" width="3.71" height="3.71"/>
  <polygon class="cls-1" points="31.93 20.79 31.93 17.07 35.64 17.07 35.64 13.36 31.93 13.36 31.93 9.65 28.22 9.65 28.22 17.07 28.22 20.79 28.22 24.5 31.93 24.5 35.64 24.5 35.64 20.79 31.93 20.79"/>
  <polygon class="cls-1" points="43.07 17.07 43.07 20.79 39.36 20.79 39.36 24.5 43.07 24.5 46.78 24.5 46.78 20.79 46.78 17.07 46.78 9.65 43.07 9.65 43.07 13.36 39.36 13.36 39.36 17.07 43.07 17.07"/>
  <polygon class="cls-1" points="50.5 31.93 46.78 31.93 46.78 35.64 43.07 35.64 43.07 39.36 39.36 39.36 39.36 28.22 39.36 24.5 35.64 24.5 35.64 28.22 35.64 39.36 31.93 39.36 31.93 35.64 28.22 35.64 28.22 31.93 24.5 31.93 20.79 31.93 20.79 39.36 24.5 39.36 24.5 43.07 28.22 43.07 28.22 46.78 31.93 46.78 31.93 50.5 35.64 50.5 35.64 65.35 39.36 65.35 39.36 50.5 43.07 50.5 43.07 46.78 46.78 46.78 46.78 43.07 50.5 43.07 50.5 39.36 54.21 39.36 54.21 31.93 50.5 31.93"/>
</svg>