<?xml version="1.0" encoding="UTF-8"?>
<svg id="Material_Referencias" data-name="Material &amp;amp; Referencias" xmlns="http://www.w3.org/2000/svg" viewBox="0 0 62.5 56.82">
  <defs>
    <style>
      .cls-1 {
        fill: #92d178;
      }
    </style>
  </defs>
  <path class="cls-1" d="M18.31,37.88h6.31v6.31h-6.31v-6.31ZM11.99,44.19h6.31v6.31h-6.31v-6.31ZM5.68,50.51h6.31v6.31h-6.31v-6.31ZM24.62,31.57h6.31v6.31h-6.31v-6.31ZM30.93,37.88v6.31h18.94v-6.31h-18.94ZM18.31,12.63v18.94h6.31V12.63h-6.31ZM24.62,6.31h6.31v6.31h-6.31v-6.31ZM30.93,0v6.31h18.94V0h-18.94ZM49.87,6.31h6.31v6.31h-6.31v-6.31ZM56.19,12.63v18.94h6.31V12.63h-6.31ZM49.87,31.57h6.31v6.31h-6.31v-6.31Z"/>
</svg>