<?xml version="1.0" encoding="UTF-8"?><svg id="Pantallas" xmlns="http://www.w3.org/2000/svg" viewBox="0 0 75 75"><defs><style>.cls-1{fill:#f3eee8;}</style></defs><rect class="cls-1" x="26.73" y="17.66" width="7.78" height="7.78"/><polygon class="cls-1" points="50.06 25.43 50.06 2.1 42.28 2.1 42.28 9.88 34.5 9.88 34.5 17.66 42.28 17.66 42.28 56.55 34.5 56.55 34.5 64.32 42.28 64.32 42.28 72.1 50.06 72.1 50.06 48.77 57.84 48.77 57.84 25.43 50.06 25.43"/><polygon class="cls-1" points="18.95 40.99 18.95 33.21 26.73 33.21 26.73 25.43 11.17 25.43 11.17 48.77 18.95 48.77 18.95 48.77 26.73 48.77 26.73 40.99 18.95 40.99"/><rect class="cls-1" x="26.73" y="48.77" width="7.78" height="7.78"/></svg>