<?xml version="1.0" encoding="UTF-8"?><svg id="Pantallas" xmlns="http://www.w3.org/2000/svg" viewBox="0 0 75 75"><defs><style>.cls-1{fill:#f3eee8;}</style></defs><rect class="cls-1" x="11.23" y="9.89" width="7.78" height="7.78"/><rect class="cls-1" x="3.46" y="2.11" width="7.78" height="7.78"/><polygon class="cls-1" points="34.52 17.67 19.01 17.67 19.01 25.44 26.79 25.44 26.79 33.22 34.56 33.22 34.56 17.67 34.52 17.67"/><rect class="cls-1" x="57.89" y="56.55" width="7.78" height="7.78"/><rect class="cls-1" x="65.67" y="64.32" width="7.78" height="7.78"/><polygon class="cls-1" points="50.07 2.11 42.29 2.11 42.29 9.89 34.52 9.89 34.52 17.67 42.29 17.67 42.29 56.55 34.52 56.55 34.52 64.32 42.29 64.32 42.29 72.1 50.07 72.1 50.07 48.77 57.85 48.77 57.85 25.44 50.07 25.44 50.07 2.11"/><polygon class="cls-1" points="18.97 41 18.97 25.44 11.19 25.44 11.19 48.77 26.74 48.77 26.74 41 18.97 41"/><rect class="cls-1" x="26.74" y="48.77" width="7.78" height="7.78"/></svg>