<?xml version="1.0" encoding="UTF-8"?>
<svg id="Congrats" xmlns="http://www.w3.org/2000/svg" viewBox="0 0 95 75">
  <defs>
    <style>
      .cls-1 {
        fill: #f3eee8;
      }
    </style>
  </defs>
  <path class="cls-1" d="M21.1,36.49h2.03v2.03h2.03v2.03h2.03v2.03h2.03v2.03h2.03v6.09h-2.03v6.1h-2.03v8.12h2.03v2.03h4.06v-2.03h4.07v-2.03h4.06v-2.03h4.06v-2.03h4.06v2.03h4.06v2.03h4.06v2.03h4.07v2.03h4.06v-2.03h2.03v-8.12h-2.03v-6.1h-2.03v-6.09h2.03v-2.03h2.03v-2.03h2.03v-2.03h2.03v-2.03h2.03v-2.03h2.03v-4.06h-2.03v-2.04h-6.09v-2.03h-6.09v-2.03h-4.07v-2.03h-2.03v-4.06h-2.03v-4.06h-2.03v-4.06h-2.03v-2.03h-4.06v2.03h-2.03v4.06h-2.03v4.06h-2.03v4.06h-2.03v2.03h-4.07v2.03h-6.09v2.03h-6.09v2.04h-2.03v4.06h2.03v2.03ZM51.56,20.24v2.03h2.03v2.03h2.03v2.03h2.03v2.03h4.07v2.04h-4.07v-2.04h-2.03v-2.03h-2.03v-2.03h-2.03v-2.03h-2.03v-4.06h2.03v2.03Z"/>
</svg>