<?xml version="1.0" encoding="UTF-8"?>
<svg id="Pantallas" xmlns="http://www.w3.org/2000/svg" version="1.1" viewBox="0 0 75 75">
  <!-- Generator: Adobe Illustrator 29.4.0, SVG Export Plug-In . SVG Version: 2.1.0 Build 152)  -->
  <defs>
    <style>
      .st0 {
        fill: #f3eee8;
      }
    </style>
  </defs>
  <rect class="st0" x="24.3" y="66" width="26.3" height="4.4"/>
  <rect class="st0" x="50.7" y="61.6" width="4.4" height="4.4"/>
  <rect class="st0" x="19.9" y="61.6" width="4.4" height="4.4"/>
  <rect class="st0" x="15.6" y="30.9" width="4.4" height="30.7"/>
  <rect class="st0" x="55.1" y="30.9" width="4.4" height="30.7"/>
  <polygon class="st0" points="59.4 13.4 46.3 13.4 46.3 9 41.9 9 41.9 13.4 33.1 13.4 33.1 9 28.7 9 28.7 13.4 15.6 13.4 15.6 17.7 59.4 17.7 59.4 13.4"/>
  <rect class="st0" x="11.2" y="17.7" width="4.4" height="4.4"/>
  <polygon class="st0" points="15.6 26.5 19.9 26.5 19.9 30.9 24.3 30.9 24.3 26.5 50.7 26.5 50.7 30.9 55.1 30.9 55.1 26.5 59.4 26.5 59.4 22.1 15.6 22.1 15.6 26.5"/>
  <rect class="st0" x="59.4" y="17.7" width="4.4" height="4.4"/>
  <rect class="st0" x="33.1" y="4.6" width="8.8" height="4.4"/>
  <rect class="st0" x="28.7" y="39.7" width="4.4" height="17.6"/>
  <rect class="st0" x="41.9" y="39.7" width="4.4" height="17.6"/>
</svg>