<?xml version="1.0" encoding="UTF-8"?>
<svg id="Material_Referencias" data-name="Material &amp;amp; Referencias" xmlns="http://www.w3.org/2000/svg" viewBox="0 0 62.5 56.82">
  <defs>
    <style>
      .cls-1 {
        fill: #92d178;
      }
    </style>
  </defs>
  <path class="cls-1" d="M40.2,7.24h5.68v5.68h-5.68v-5.68Z"/>
  <path class="cls-1" d="M16.61,7.24h5.68v5.68h-5.68v-5.68Z"/>
  <path class="cls-1" d="M45.88,12.9h5.68v5.68h-5.68v-5.68Z"/>
  <path class="cls-1" d="M10.93,12.9h5.68v5.68h-5.68v-5.68Z"/>
  <path class="cls-1" d="M45.88,45.46h5.68v5.68h-5.68v-5.68Z"/>
  <path class="cls-1" d="M10.93,45.46h5.68v5.68h-5.68v-5.68Z"/>
  <path class="cls-1" d="M16.62,51.14h29.27v5.68h-29.27v-5.68Z"/>
  <path class="cls-1" d="M51.57,18.58h5.68v26.89h-5.68v-26.89Z"/>
  <path class="cls-1" d="M5.25,18.58h5.68v26.89h-5.68v-26.89Z"/>
  <path class="cls-1" d="M29.5,0v29.74h5.68V0h-5.68Z"/>
</svg>